<svg xmlns="http://www.w3.org/2000/svg" viewBox="0 0 77.85 40.21"><defs><style>.cls-1{fill:#d1d1d1;}</style></defs><title>Recurso 6</title><g id="Capa_2" data-name="Capa 2"><g id="Capa_1-2" data-name="Capa 1"><path class="cls-1" d="M13.19,17.17A2.5,2.5,0,0,1,11.6,17,6.67,6.67,0,0,1,10,20.12,8.44,8.44,0,0,0,13.19,17.17Z"/><path d="M20.09,5.64a4.81,4.81,0,0,1,4,1.76,7.75,7.75,0,0,1,1.38,4.9A7.1,7.1,0,0,1,24.07,17a5,5,0,0,1-4,1.68A4.76,4.76,0,0,1,16.23,17,7.15,7.15,0,0,1,14.8,12.3a7.83,7.83,0,0,1,1.36-4.9A4.67,4.67,0,0,1,20.09,5.64Zm0,9.64a1.22,1.22,0,0,0,1.14-.7,5.47,5.47,0,0,0,.38-2.41,5.33,5.33,0,0,0-.37-2.37,1.2,1.2,0,0,0-1.12-.68A1.22,1.22,0,0,0,19,9.78a5.23,5.23,0,0,0-.39,2.41Q18.64,15.27,20.12,15.27Z"/><path d="M32.37,5.64a4.81,4.81,0,0,1,4,1.76,7.75,7.75,0,0,1,1.38,4.9A7.1,7.1,0,0,1,36.35,17a5,5,0,0,1-4,1.68A4.76,4.76,0,0,1,28.51,17a7.15,7.15,0,0,1-1.43-4.72,7.83,7.83,0,0,1,1.36-4.9A4.67,4.67,0,0,1,32.37,5.64Zm0,9.64a1.22,1.22,0,0,0,1.14-.7,5.47,5.47,0,0,0,.38-2.41,5.33,5.33,0,0,0-.37-2.37,1.2,1.2,0,0,0-1.12-.68,1.22,1.22,0,0,0-1.12.66,5.23,5.23,0,0,0-.39,2.41Q30.93,15.27,32.4,15.27Z"/><path d="M40.06,0h3.85V10.86H44L46.61,6.5h4.63L47.32,12l4,6.75H46.86l-2.88-6h-.07v6H40.06Z"/><path d="M0,.32v19.8H10A6.67,6.67,0,0,0,11.6,17a2.5,2.5,0,0,0,1.59.17V.32ZM11.63,6.48a4.1,4.1,0,0,1-2.19,3.6,3.74,3.74,0,0,1,2,1.6l-4.6.16L4.15,6.17h7.47A2.74,2.74,0,0,1,11.63,6.48ZM10.13,3a4.3,4.3,0,0,1,1.41,2.49H6.68l1-3.59A5,5,0,0,1,10.13,3ZM1.27,1.71H5.2a12.78,12.78,0,0,1,1.9.13L6,5.54H1.27Zm0,4.46h2.2l2.64,5.7L1.27,12Zm0,6.52,7.49-.27L7.36,15.08l-6.09.22Zm0,6v-2.8L4,15.83l.6,2.89Zm9.11-1.35a5.92,5.92,0,0,1-4.06,1.35h-1L4.7,15.8l6.93-.24A4.31,4.31,0,0,1,10.38,17.38Zm1.44-2.46-3.72.13L9.49,12.4l2.2-.09a4.41,4.41,0,0,1,.24,1.51A5.09,5.09,0,0,1,11.82,14.92Z"/><path class="cls-1" d="M26.77,37.26a2.5,2.5,0,0,1-1.59-.17,6.67,6.67,0,0,1-1.64,3.12A8.44,8.44,0,0,0,26.77,37.26Z"/><path d="M13.58,20.41v19.8h10a6.67,6.67,0,0,0,1.64-3.12,2.5,2.5,0,0,0,1.59.17V20.41Zm11.63,6.15A4.1,4.1,0,0,1,23,30.16a3.74,3.74,0,0,1,2,1.6l-4.6.16-2.64-5.67H25.2A2.76,2.76,0,0,1,25.21,26.56Zm-1.5-3.43a4.3,4.3,0,0,1,1.41,2.49H20.26l1-3.59A5,5,0,0,1,23.71,23.13Zm-8.86-1.34h3.93a12.77,12.77,0,0,1,1.9.13l-1.09,3.7H14.85Zm0,4.46h2.2L19.7,32l-4.84.17Zm0,6.52,7.49-.27-1.39,2.67-6.09.22Zm0,6V36l2.78-.1.6,2.89ZM24,37.46a5.92,5.92,0,0,1-4.06,1.35h-1l-.59-2.93,6.93-.24A4.31,4.31,0,0,1,24,37.46ZM25.4,35l-3.72.13,1.39-2.66,2.2-.09a4.41,4.41,0,0,1,.24,1.51A5.09,5.09,0,0,1,25.4,35Z"/><path d="M28,26.17h3.87V34a1.72,1.72,0,0,0,.29,1,.9.9,0,0,0,.78.41q1.12,0,1.12-1.64V26.17h3.87v7.09a6,6,0,0,1-1.26,4.13A4.6,4.6,0,0,1,33,38.81a4.64,4.64,0,0,1-3.83-1.46A5.65,5.65,0,0,1,28,33.7Z"/><path d="M41.19,34.48A6.86,6.86,0,0,0,44,35.65a1.27,1.27,0,0,0,.8-.25.73.73,0,0,0,.32-.59.6.6,0,0,0-.27-.55q-.27-.17-2-.93a4.84,4.84,0,0,1-2-1.44,3.39,3.39,0,0,1-.61-2.07,3.82,3.82,0,0,1,1.22-2.91,4.35,4.35,0,0,1,3.1-1.14,9.81,9.81,0,0,1,4.49,1.46L47.62,30a5.85,5.85,0,0,0-2.83-1.06q-1,0-1,.77a.8.8,0,0,0,.35.64,5.05,5.05,0,0,0,1.28.6A6.26,6.26,0,0,1,48,32.41a3,3,0,0,1,.79,2.15,4,4,0,0,1-1.25,3.06,4.43,4.43,0,0,1-3.19,1.2,8.65,8.65,0,0,1-4.49-1.48Z"/><path d="M51.64,23.33H55.5v3.26H57V29.8H55.48v9H51.64v-9H50.17V26.58h1.46Z"/><path d="M64.72,34.69H68q-.93,4.12-4.65,4.12A4.39,4.39,0,0,1,59.64,37a7.84,7.84,0,0,1-1.36-4.88,7.38,7.38,0,0,1,1.36-4.65,4.33,4.33,0,0,1,3.6-1.75,4.59,4.59,0,0,1,2.61.84,4.88,4.88,0,0,1,1.82,2.24,13.23,13.23,0,0,1,.64,4.4H61.86Q61.94,36,63.37,36a1.25,1.25,0,0,0,.88-.36A1.51,1.51,0,0,0,64.72,34.69Zm-2.8-3.54h2.8a4.66,4.66,0,0,0-.36-1.91,1.06,1.06,0,0,0-1-.62,1.16,1.16,0,0,0-1.1.6A4.17,4.17,0,0,0,61.91,31.16Z"/><path d="M74.26,26.58v2h.05q1.38-2.39,2.91-2.39a3.4,3.4,0,0,1,.62.08v3.79a7.82,7.82,0,0,0-1.3-.12q-2.13,0-2.13,2.75v6.07H70.57V26.58Z"/></g></g></svg>